<?xml version="1.0" standalone="no"?><!DOCTYPE svg PUBLIC "-//W3C//DTD SVG 1.1//EN" "http://www.w3.org/Graphics/SVG/1.1/DTD/svg11.dtd">
<svg t="1692865930000" class="icon" viewBox="0 0 1024 1024" version="1.1"
     xmlns="http://www.w3.org/2000/svg" p-id="1001" xmlns:xlink="http://www.w3.org/1999/xlink" width="16" height="16">
  <defs></defs>
  <path d="M512 800a64 64 0 1 0 0-128 64 64 0 0 0 0 128z"
        p-id="1002" fill="#ffffff"/>
  <path d="M512 672c-65.6 0-126.4 25.6-172.8 67.2a32 32 0 0 0 42.4 47.8c34.9-31 80.1-49 130.4-49s95.5 18 130.4 49a32 32 0 1 0 42.4-47.8C638.4 697.6 577.6 672 512 672z"
        p-id="1003" fill="#ffffff"/>
  <path d="M512 544c-105.6 0-201.6 41.6-272.6 109.4a32 32 0 1 0 43.8 46.2C356.6 662.7 430.7 624 512 624s155.4 38.7 228.8 75.6a32 32 0 1 0 43.8-46.2C713.6 585.6 617.6 544 512 544z"
        p-id="1004" fill="#ffffff"/>
  <path d="M512 416c-145.6 0-277.2 57.6-372.5 150.3A32 32 0 1 0 183.3 619.7C261.7 543.7 381.3 496 512 496s250.3 47.7 328.7 123.7a32 32 0 1 0 43.8-46.2C789.2 473.6 657.6 416 512 416z"
        p-id="1005" fill="#ffffff"/>
</svg>
